<?xml version="1.0" encoding="UTF-8"?><svg id="a" xmlns="http://www.w3.org/2000/svg" viewBox="0 0 402.8 399.18"><defs><style>.b{fill:#fff;}</style></defs><path class="b" d="M315.81,68.58c-5.51-1.76-11.38-1.76-17.11-1.53-2.58,.1-5.23,.39-7.27,2.14-1.9,1.64-2.73,4.02-3.48,6.35-1.81,5.63-3.33,11.49-4.05,17.37-.65,5.34,.25,10.49,3.95,14.58,3.56,3.93,8.81,5.87,13.92,6.69,5.27,.84,11.38,1.8,16.34-.68,4.44-2.23,8.09-6.69,10.39-11,2.3-4.3,3.67-9.26,3.32-14.16-.75-10.56-9.74-20.38-20.82-19.61-3.94,.27-3.97,6.45,0,6.17,6.88-.48,12.84,4.82,14.34,11.38,1.68,7.36-2.15,15.15-7.56,19.99-3.38,3.03-7.24,2.73-11.51,2.31-4.11-.4-8.38-1.13-11.85-3.5-7.51-5.11-3.99-15.46-2.06-22.66,.64-2.37,1.21-4.9,2.19-7.16,.93-2.15,2.82-1.99,4.9-2.05,4.98-.16,9.93-.2,14.72,1.34,3.79,1.21,5.41-4.74,1.64-5.95h0Z"/><path class="b" d="M303.72,65.98c-6.05-.64-12.28-.49-16.7,4.3-4.01,4.35-7.51,10.45-8.5,16.32-.96,5.73,.49,11.9,5.11,15.7,4.6,3.79,11.18,5.89,16.73,7.85,9.96,3.52,25.24,5.7,31.02-5.83,4.68-9.34,4.01-22.75-3.41-30.5-4.65-4.85-11.32-6.57-17.69-7.82-6.46-1.27-13.42-2.41-19.34,1.24-3.37,2.08-.28,7.42,3.11,5.33,3.96-2.44,8.73-1.72,13.08-.91,4.4,.82,9.07,1.62,13.01,3.86,7.46,4.24,9.09,13.6,7.3,21.4-1,4.39-2.92,7.94-7.45,9.29-4.25,1.26-8.77,.65-12.98-.45-4.89-1.27-9.62-3.22-14.24-5.25-4.3-1.9-7.92-4.31-8.35-9.38-.46-5.4,2.58-10.51,5.6-14.74,1.42-1.99,3-3.62,5.45-4.23,2.67-.67,5.56-.28,8.26,0,3.94,.42,3.91-5.75,0-6.17h0Z"/><path class="b" d="M221.98,133.73c-26.23-6.6-54.78,5.72-69,28.56-14.68,23.58-14.07,58.27,2.82,80.7,9.1,12.09,25.27,15.4,39.48,17.43,14.02,2,28.75,1.52,41.73-4.68,25.45-12.16,33.58-43.21,30.4-69.21-3.9-31.81-28.16-63.03-63.25-57.68-3.91,.6-2.25,6.54,1.64,5.95,28.34-4.32,49.14,20.38,54.42,45.73,4.71,22.67,.55,51.87-19.76,66.08-10.66,7.46-23.84,9.34-36.57,8.55-11.69-.72-26.74-2.87-36.65-9.55-10.88-7.34-15.88-22.82-17.71-35.21-1.89-12.86-.29-26.5,5.19-38.34,11.27-24.33,39.32-38.99,65.62-32.38,3.85,.97,5.49-4.98,1.64-5.95h0Z"/><path class="b" d="M217.71,132.02c-24.71-6.78-63.57,.68-72.23,28.65-4.93,15.91-5.62,34.88-4.7,51.39,.8,14.39,4.48,28.73,14.59,39.46,21.07,22.39,54.76,20.81,80.69,8.82,12.88-5.96,27.93-14.45,34.27-27.82,6.16-13,4.64-29.38,2.05-43.1-5.94-31.39-29.77-61.3-64.23-60.14-3.96,.13-3.98,6.3,0,6.17,27.2-.91,48.02,20.3,55.65,44.94,3.73,12.06,5.56,25.59,4.06,38.19-1.8,15.04-12.1,23.68-24.43,30.94-22.86,13.46-52.52,20.03-76,4.21-23.97-16.15-22.17-48.82-19.14-74.22,.96-8.07,1.8-17.71,6.6-24.56,4.2-5.98,11.03-10.27,17.53-13.36,13.64-6.49,29.16-7.58,43.66-3.6,3.83,1.05,5.47-4.9,1.64-5.95h0Z"/><path class="b" d="M124.4,141.03c21.86-32.69,64.26-47.37,102.48-41.34,21.18,3.34,38.06,17.66,52.26,33.01,13.91,15.03,17.52,36.65,20.36,56.28,5.77,39.86-12.22,80.06-48.7,98.81-17.9,9.2-38.7,12.51-58.54,9.08-18.64-3.22-42.08-9.16-55.98-22.53-16.78-16.15-22.36-39.85-23.61-62.33-1.27-22.79-2.58-49.73,7.41-70.82,1.69-3.57-3.63-6.7-5.33-3.11-9.68,20.44-9.05,44.28-8.54,66.42,.52,22.35,4.03,45.43,17.15,64.13,12.89,18.37,32.4,25.04,53.2,30.88,21.01,5.9,42.53,6.63,63.38-.46,39.35-13.39,66.87-51.22,67.05-92.92,.05-11.26-1.99-22.43-4.19-33.44-2.28-11.36-4.81-23-10.74-33.1-5.25-8.95-13.08-15.94-20.72-22.81-8.04-7.24-16.36-14.26-26.43-18.49-43.11-18.11-100.46,1.68-125.85,39.63-2.21,3.31,3.13,6.4,5.33,3.11h0Z"/><path class="b" d="M123.32,137.64c13.49-14.86,32.15-22.07,51.01-27.58,21.19-6.19,44.15-10.02,65.9-4.34,19.89,5.19,36.46,17.59,44.55,36.76,7.58,17.95,10.66,38.96,11.6,58.3,.96,19.96-1.38,40.47-9.93,58.72-4.1,8.77-9.48,17.86-18.05,22.89-9.55,5.6-21.72,8.12-32.31,11.09-20.04,5.63-41.2,9.69-62.01,6.16-22.28-3.77-41.12-17.28-54.11-35.57-6.97-9.81-9.47-20.68-11.27-32.37-1.87-12.11-3.69-24.34-3.76-36.62-.15-23.81,7.32-46.36,21.05-65.74,2.3-3.25-3.05-6.33-5.33-3.11-12.81,18.09-20.5,39.15-21.74,61.34-.64,11.56,.6,23.15,2.18,34.59,1.67,12.12,2.81,25.01,8.21,36.16,9.07,18.73,27.76,35.58,47.12,42.96,21.3,8.13,44.77,6.69,66.65,1.87,19.48-4.29,45.98-8.67,59.29-25.01,13.52-16.58,19-39.53,20.14-60.47,2.16-39.92-5.36-93.08-45.3-112.28-22.33-10.74-47.7-10.04-71.38-4.7-24.04,5.41-49.87,13.87-66.88,32.6-2.66,2.93,1.69,7.31,4.36,4.36h0Z"/><path class="b" d="M49.58,99.02c-2.57-18.41,8.99-35.12,24.31-44.31,15.84-9.5,35.35-10.98,53.38-11.1,37.61-.25,75.12,3.92,112.65,5.68,18.49,.87,36.96,1.11,55.46,.34,19.25-.8,38.52,.17,48.84,19.13,8.93,16.39,7.71,35.73,7.8,53.79,.1,19.53,.53,39.05,1.16,58.57,1.19,36.75,4.55,73.69,4.4,110.44-.08,18.76-4.27,36.8-20.11,48.51-14.28,10.55-32.2,13.58-49.55,14.11-37.3,1.14-75.07-1.81-112.36-2.94-19.36-.58-38.78-.79-58.13-1.86-17.94-.99-36.63-3.85-51.08-15.35-17.98-14.3-16.27-32.79-15.82-53.59,.44-20.26-3.93-40.2-6.19-60.24-4.81-42.83-3-86.12,5-128.45,.73-3.88-5.21-5.54-5.95-1.64-7.98,42.23-10.05,85.38-5.43,128.14,2.24,20.7,6.87,41.29,6.4,62.2-.39,17.21-2.63,33.76,8.33,48.42,22.36,29.89,65.27,26.83,98.4,27.82,44.25,1.33,88.8,4.31,133.06,3.74,32.23-.41,68.91-10.94,77.33-46.35,4.33-18.21,1.83-37.77,1-56.24-1-22.2-2-44.41-2.79-66.62-.79-22.21-1.37-44.43-1.5-66.65-.11-18.26,1.18-37.74-6.57-54.8-16.71-36.82-61.24-25.18-93.81-25.99-48.08-1.2-96.91-9.42-144.99-5.83-33.82,2.53-74.82,22.44-69.19,62.7,.55,3.91,6.49,2.25,5.95-1.64h0Z"/><path class="b" d="M7.31,87.37c6.86-17.19,14.16-34.66,25.35-49.56,14.19-18.9,33.21-27.87,56.58-29.78,46.87-3.84,94.95-2.11,141.92-1,23.36,.55,46.81,1.03,70.09,3.09,23.36,2.07,54.58,3.36,68.14,25.56,24.42,39.99,28.45,87.73,26.39,133.27-2.13,46.96-3.36,94.09-6.56,140.98-1.55,22.64-7.59,42.86-25.2,58.15-16.3,14.16-37.67,21.34-58.85,23.75-23.21,2.65-46.62,.29-69.8-1.5-23.09-1.78-46.23-2.76-69.4-2.77-41.4-.02-95.04,11.34-126.59-22.83C6.26,328.87,4.94,270.34,6.57,224.52c1.77-49.93,8.92-99.86,2.38-149.73-.51-3.88-6.68-3.93-6.17,0,6.54,49.88-.61,99.8-2.38,149.73-1.57,44.17,.36,94.86,25.61,132.98,25.53,38.55,68.56,38.1,110.21,36.73,26.43-.87,52.9-.57,79.31,.93,26.53,1.51,53.13,5.17,79.73,3.66,37.43-2.12,79.38-17.83,93.89-55.57,8.58-22.33,7-48.45,8.08-71.96,1.23-26.77,2.47-53.54,3.7-80.32,1.2-25.99,3.46-52.3,.14-78.22-2.85-22.26-9.54-43.81-18.55-64.32-9.04-20.57-19.4-33.3-41.82-38.64-24.54-5.84-50.14-6.94-75.24-7.9C235.87,.78,206.27,.22,176.66,.18c-30.16-.04-61.07-1.02-91.1,2-21.64,2.18-40.03,10.61-54.14,27.35C17.6,45.91,9.22,66.03,1.36,85.73c-1.47,3.69,4.49,5.29,5.95,1.64h0Z"/></svg>