<?xml version="1.0" encoding="UTF-8"?><svg id="a" xmlns="http://www.w3.org/2000/svg" viewBox="0 0 380.86 381.04"><defs><style>.d{fill:#fff;}</style></defs><g id="b"><g id="c"><path class="d" d="M18.49,174.11C135.74,122.32,252.99,70.52,370.25,18.72c-1.35-1.19-2.7-2.38-4.04-3.57-11.39,121.07-35.31,240.18-71.06,354.69,1.56-.74,3.13-1.48,4.69-2.21-49.76-36.69-98.3-75.51-145.55-116.41-3.3-2.85-6.49,3.57-3.22,6.4,47.25,40.9,95.79,79.72,145.55,116.41,1.86,1.37,4.02-.07,4.69-2.21,35.95-115.16,59.83-234.92,71.29-356.66,.21-2.27-2.23-4.37-4.04-3.57C251.3,63.38,134.05,115.17,16.8,166.97c-3.8,1.68-2.15,8.85,1.7,7.14h0Z"/><path class="d" d="M103.69,225.23c5.55,21.29,13.1,41.97,19.9,62.76,6.95,21.27,13.9,42.53,20.85,63.8,1.17,3.57,6.7,3.5,6.28-.98-3.13-33.4,5.85-66.21,4.59-99.6-.18-4.75-6.57-4.77-6.39,0,1.25,33.39-7.72,66.2-4.59,99.6,2.09-.33,4.18-.66,6.28-.98-6.95-21.27-13.9-42.53-20.85-63.8-6.79-20.79-14.35-41.47-19.9-62.76-1.19-4.55-7.36-2.61-6.16,1.97h0Z"/><path class="d" d="M105.75,222.01c-30.43-19.06-62.1-35.33-94.71-48.69-3.88-1.59-5.56,5.56-1.7,7.14,32.1,13.15,63.23,29.18,93.18,47.94,3.62,2.27,6.85-4.13,3.23-6.4h0Z"/><path class="d" d="M101.86,223.82c14.93-4.2,28.42-14.69,41.66-23.35,14.4-9.41,28.68-19.09,42.82-29.02,28.74-20.19,56.89-41.48,84.46-63.74,3.35-2.71,.16-9.13-3.22-6.4-26.7,21.55-53.94,42.2-81.73,61.81-13.67,9.65-27.46,19.05-41.37,28.21-13.98,9.2-28.55,20.91-44.31,25.34-3.99,1.12-2.3,8.27,1.7,7.14h0Z"/><path class="d" d="M163.04,249.96c30.51-49.92,75.4-84.28,110.01-129.91,2.71-3.57-1.8-8.83-4.52-5.24-34.99,46.15-80.15,80.91-111.01,131.41-2.38,3.9,3.16,7.6,5.52,3.74h0Z"/><path class="d" d="M153.62,357.19c7.87-11.58,17.19-21.57,27.74-29.77,9.53-7.41,19.73-14.37,25.8-26.08,2.12-4.1-3.4-7.83-5.52-3.74-5.91,11.39-16.41,17.72-25.56,25.04-10.21,8.17-19.3,18.02-26.98,29.32-2.52,3.7,1.97,8.98,4.52,5.24h0Z"/><path class="d" d="M4.88,170.4c30.68-16.51,61.09-34.16,92.98-47.35,29.86-12.34,60.52-21.77,90.66-33.11,30.04-11.3,57.96-26.45,86.65-41.53,31.9-16.77,65.57-28.23,99.11-39.63,3.94-1.34,2.26-8.49-1.7-7.14-31.47,10.7-63.03,21.47-93.19,36.55-32.09,16.05-62.85,33.6-96.26,45.99-30.79,11.42-62.08,21.07-92.44,34.03-30.46,13.01-59.63,29.96-89.04,45.8-3.73,2.01-.48,8.39,3.22,6.4h0Z"/><path class="d" d="M372.5,4.52c4.9,16.82-.34,34.2-3.71,50.8-3.38,16.6-6.75,33.19-10.13,49.79-6.43,31.61-12.78,63.25-19.33,94.83-12.53,60.34-26.85,120.57-52.29,175.54,1.46-.44,2.91-.89,4.37-1.33-47.26-32.52-91.96-69.62-133.71-111.07-2.16-2.15-5.24-.67-5.45,2.62-2.2,33.63-2.98,67.32-2.35,101.04,.05,2.52,2.78,5,4.81,3.2,16.21-14.44,32.41-28.88,48.62-43.32,3.22-2.87,.04-9.3-3.22-6.4-16.21,14.44-32.41,28.88-48.62,43.32,1.6,1.07,3.2,2.13,4.81,3.2-.63-33.72,.15-67.41,2.35-101.04-1.82,.87-3.64,1.75-5.45,2.62,42.15,41.85,87.27,79.38,135,112.22,1.44,.99,3.56,.43,4.37-1.33,26.32-56.87,40.94-119.23,53.84-181.66,7.04-34.09,13.9-68.22,20.84-102.34,3.38-16.6,6.78-33.19,10.13-49.79,2.91-14.4,5.5-28.48,1.3-42.88-1.31-4.49-7.48-2.57-6.16,1.97h0Z"/><path class="d" d="M93.24,223.88c17.55,44.24,36.38,88.04,50.13,134.12,.82,2.76,3.45,3.48,5.34,1.63,1.73-1.69,2.43-3.62,2.25-6.26-.31-4.72-6.71-4.76-6.39,0-.13,.34-.25,.68-.38,1.02,1.78,.54,3.56,1.09,5.34,1.63-13.93-46.68-32.99-91.07-50.77-135.89-1.72-4.33-7.23-.57-5.52,3.74h0Z"/><path class="d" d="M283.62,91.72c-7.07,8.26-13.32,17.48-18.59,27.39-.91,1.7-.32,4.08,1.15,5.07,1.52,1.03,3.46,.38,4.37-1.33,5-9.39,10.89-18.05,17.59-25.89,2.9-3.39-1.62-8.63-4.52-5.24h0Z"/><path class="d" d="M14.57,191.32c18.67,10.32,37.7,19.75,57.04,28.28,3.85,1.7,5.51-5.46,1.7-7.14-18.82-8.3-37.33-17.48-55.51-27.53-3.69-2.04-6.94,4.34-3.22,6.4h0Z"/></g></g></svg>