<?xml version="1.0" encoding="UTF-8"?><svg id="a" xmlns="http://www.w3.org/2000/svg" viewBox="0 0 372.29 416.65"><defs><style>.b{fill:#fff;}</style></defs><path class="b" d="M183.06,5.84c13.29-.15,26.56,.13,39.83,.98,5.37,.34,18.47-1,21.43,4.75,2.28,4.43,1.47,13.21,2.1,18.15,2.48,19.3,11.82,33.24,27.67,44.32,17.46,12.21,38.27,20.02,59.29,23.13,.9,.13,5.58,.51,6.43,.81,5.59,1.95,4.97,5.41,4.57,10.26-.53,6.55-1.15,13.09-1.86,19.62-1.5,13.9-3.42,27.74-5.67,41.53,1.19-.68,2.38-1.35,3.57-2.03-30.64-8.39-60.73-18.56-90.18-30.49-3.46-1.4-4.97,4.21-1.54,5.6,29.45,11.92,59.53,22.09,90.18,30.49,1.39,.38,3.32-.47,3.57-2.03,2.33-14.3,4.32-28.66,5.88-43.07,.7-6.53,1.32-13.07,1.86-19.62,.31-3.82,1.8-9.71-1.03-13.11-2.01-2.41-5.03-2.47-7.92-2.82-6.85-.83-13.59-1.83-20.29-3.5-13.14-3.29-25.75-8.53-37.35-15.52-10.76-6.49-21.3-14.83-26.81-26.43-5.62-11.83-3.27-24.72-6.87-36.82-2.69-9.02-12.63-7.94-20.41-8.54C214.06,.29,198.56-.14,183.06,.04c-3.73,.04-3.74,5.85,0,5.8h0Z"/><path class="b" d="M306.95,94.55c7.61,12.84,22.57,20.75,37.48,19.55,3.7-.3,3.73-6.1,0-5.8-12.93,1.04-25.83-5.48-32.47-16.68-1.9-3.21-6.92-.29-5.01,2.93h0Z"/><path class="b" d="M179.8,5.56c1.09,59.98-.37,119.98-4.55,179.83-2.08,29.76-3.6,60.19-8.38,89.65-2.33,14.38-8.58,26.6-22.35,32.9-15.04,6.88-31.87,4.22-47.11-.41-3.58-1.09-5.11,4.51-1.54,5.6,22.82,6.93,51.96,8.22,67.85-13.15,7.96-10.71,9.06-24.42,10.46-37.24,1.85-16.95,3.46-33.92,4.87-50.91,5.69-68.6,7.82-137.45,6.57-206.27-.07-3.73-5.87-3.74-5.8,0h0Z"/><path class="b" d="M92.04,312.25c15.95,17.16,39,26.99,62.53,25.61,24.02-1.42,40.31-14.55,46.81-37.64,8.22-29.18,5.79-61.81,6.46-91.82,.74-33.41,1.53-66.81,2.21-100.22,.38-18.55,.67-37.11,.69-55.66,0-5.12-.01-10.24-.06-15.36-.02-1.89-.21-3.88-.06-5.76,.39-4.82,.63-3.51,4.51-4.18,9.34-1.63,21.07,.63,30.61,.91,3.74,.11,3.73-5.69,0-5.8-10.2-.3-20.41-.77-30.61-.91-3.96-.06-7.39-.75-9.68,2.85-1.73,2.71-.61,8.14-.59,10.98,.05,5.12,.07,10.24,.07,15.36,0,10.24-.08,20.47-.22,30.71-.54,39.86-1.63,79.72-2.51,119.58-.43,19.44-.57,38.91-1.43,58.34-.79,17.92-1.5,38.48-11.16,54.26-20.42,33.37-71.85,17.92-93.48-5.33-2.55-2.74-6.65,1.37-4.1,4.1h0Z"/><path class="b" d="M246.46,18.37c5.11,.77,10.22,1.54,15.33,2.32,4.07,.62,7.83,1.11,9.93,5.09,1.77,3.35,2.21,7.32,2.88,11,.84,4.59,1.86,9.14,3.06,13.65,3.93,14.69,9.67,30.54,23.31,38.84,3.2,1.95,6.12-3.07,2.93-5.01-14.71-8.96-19.51-28.74-22.81-44.45-1.43-6.82-1.7-15.33-7-20.54-2.95-2.9-6.83-3.58-10.76-4.18-5.11-.78-10.22-1.55-15.33-2.32-3.65-.55-5.23,5.04-1.54,5.6h0Z"/><path class="b" d="M345.19,115.22l12.57-.05c2.1,0,4.19-.02,6.29-.02,2.54-.01,2.69-1,2.4,1.67-.85,7.7-.58,15.69-.86,23.43-.31,8.41-.62,16.82-.93,25.24-.16,4.21-.31,8.41-.47,12.62-.11,2.86,.94,8.68-2.67,9.03-3.43,.33-7.36-.56-10.81-.87-3.98-.35-7.95-.75-11.91-1.25-7.78-1-15.54-2.43-23.06-4.69-13.09-3.92-25.28-10.48-34.51-20.69-2.51-2.78-6.6,1.34-4.1,4.1,18.08,20.01,45.31,25.66,71.03,28.1,3.69,.35,7.39,.66,11.08,.94,2.44,.18,4.89,.47,7.04-.93,4.69-3.07,3.62-10.83,3.79-15.54,.58-15.62,1.15-31.25,1.73-46.87,.17-4.5,.44-9.01,.5-13.52,.03-2.55-.26-5.02-2.92-6.11-2.86-1.17-6.77-.46-9.81-.45l-14.37,.06c-3.73,.01-3.74,5.82,0,5.8h0Z"/><path class="b" d="M248.32,139.65c.72,22.82,1.44,45.65,2.17,68.47,.7,22.27,1.66,44.66-1.67,66.77-6.1,40.47-25.76,80.1-62.19,101.17-18.89,10.93-39.08,13.6-60.61,13.31-11.47-.15-23.15-.67-33.99-4.8-10.81-4.12-20.09-11.45-28.44-19.28-15.11-14.17-29.71-28.89-34.64-49.62-5.25-22.08-7.67-46.47-1.8-68.66,6.54-24.73,23.37-39.23,43.52-53.41,9.94-7,20.37-13.26,32.29-16.19,13.2-3.25,27.01-2.77,40.49-2.26,3.74,.14,3.73-5.66,0-5.8-24.16-.91-46.31,.53-67.31,13.62-18.07,11.26-37.57,24.87-47.57,44.21-10.41,20.15-11.94,43.28-9.39,65.48,2.48,21.54,6.97,40.94,21.58,57.51,13.82,15.66,29.77,32.49,49.72,40.03,20.62,7.79,48.16,7.09,69.44,2.5,41.61-8.98,72.19-43.57,86.1-82.42,9.01-25.18,11.3-51.75,10.92-78.31-.43-30.76-1.85-61.54-2.82-92.29-.12-3.73-5.92-3.74-5.8,0h0Z"/><path class="b" d="M142.27,172.14c1.24,10.98,2.47,21.95,3.71,32.93,.3,2.65,1.86,6.51-1.38,8.13-1.22,.61-4.11-.35-5.41-.47-4.42-.38-8.87-.61-13.31-.48-16.19,.46-31.57,5.88-41.83,18.89-21,26.61-11.49,62.44,10.11,85.33,2.57,2.72,6.67-1.39,4.1-4.1-11.84-12.55-20.42-28.87-20.38-46.46,.04-16.61,8.37-33.65,23.18-41.87,8.3-4.6,17.87-5.98,27.24-6.01,5.86-.02,15.47,3.03,20.8,.02,5.48-3.09,2.93-10.78,2.37-15.72-1.13-10.06-2.26-20.12-3.4-30.18-.41-3.67-6.22-3.71-5.8,0h0Z"/><path class="b" d="M99.09,310.39c-2.33-19.69-3.28-39.88,12.13-54.72,14.95-14.4,36.68-17.15,56.46-14.43,1.89,.26,3.6-.72,3.67-2.8,.66-19.04,1.32-38.08,1.99-57.12,.16-4.52,1.91-11.65-1.82-15.25-2.33-2.24-5.97-2.18-8.95-2.59-4.93-.67-9.86-1.34-14.8-2-3.65-.49-5.23,5.1-1.54,5.6,5.23,.71,19.32,.08,21.6,5.68,1.06,2.6-.3,8.57-.4,11.42-.12,3.33-.23,6.66-.35,10-.51,14.76-1.03,29.51-1.54,44.27,1.22-.93,2.45-1.87,3.67-2.8-21.3-2.93-43.9-.26-60.55,14.49-17.94,15.89-18.01,38.09-15.38,60.26,.43,3.66,6.24,3.71,5.8,0h0Z"/><path class="b" d="M1.61,262.04c-4.09,27.38-.96,54.18,16.14,76.67,18.88,24.83,44.26,51.08,77.42,52.16,3.74,.12,3.73-5.68,0-5.8-18.76-.61-34.71-10.06-48.16-22.58-11.12-10.37-22.49-22.45-30.35-35.5-16.6-27.54-11.57-61.35-3.51-90.79,4.06-14.84,8.63-30.51,18.88-42.39,9.62-11.16,23.45-19.56,35.85-27.32,13.54-8.47,28.12-15.65,44-18.27,7.35-1.21,27.04-4.08,30.09,5.43,2.06,6.43,0,16.78,0,23.48,0,3.73,5.81,3.74,5.8,0h0c0-7.27,.12-14.54,0-21.81-.07-4.19-.17-7.84-3.82-10.45-8.61-6.16-25.79-3.71-35.33-1.93-15.12,2.83-29.18,9.6-42.19,17.62-12.16,7.49-25.07,15.64-35.28,25.74C12.17,205.1,5.42,236.57,1.61,262.04"/><path class="b" d="M74.14,389.9c35.97,33.92,96.55,32.68,139.04,12.45,22.01-10.48,39.9-27.65,49.68-50.13,10.87-25.01,11.97-53.01,11.97-79.88,0-37.76-.77-75.54-1.21-113.3-1.46,.84-2.91,1.67-4.37,2.51,14.84,10.54,31,18.48,48.37,23.87,3.58,1.11,5.11-4.49,1.54-5.6-16.95-5.26-32.53-13.01-46.99-23.28-1.83-1.3-4.39,.45-4.37,2.51,.44,37.24,1.15,74.48,1.21,111.72,.05,32.34-1.14,67.61-20.33,95.12-34.65,49.67-125.77,62.04-170.45,19.91-2.72-2.56-6.83,1.54-4.1,4.1h0Z"/></svg>