<?xml version="1.0" encoding="UTF-8"?><svg id="a" xmlns="http://www.w3.org/2000/svg" viewBox="0 0 419 350.5"><defs><style>.d{fill:#fff;}</style></defs><g id="b"><g id="c"><path class="d" d="M198.31,114.05c-3.2-26,.83-53.57,18.2-74.15,16.55-19.59,39.97-25.31,64.68-26.18,13.85-.48,26.12,1.58,36.69,11.16,7.55,6.84,13.42,15.62,21.57,21.81,6.26,4.75,10.14,2.94,16.53-.7,11.24-6.41,22.41-12.95,33.61-19.42-1.53-1.18-3.06-2.35-4.59-3.53-3.4,17.06-9.92,32.99-16.75,48.91-1.13,2.63,.71,5.01,3.53,4.59,11.37-1.69,22.75-3.38,34.12-5.06-1.01-1.74-2.03-3.48-3.04-5.22-14.76,13.88-29.83,27.41-45.22,40.58-3.06,2.62,1.38,7.02,4.42,4.42,15.39-13.17,30.46-26.7,45.22-40.58,2.5-2.35-.21-5.64-3.04-5.22-11.37,1.69-22.75,3.38-34.12,5.06,1.18,1.53,2.35,3.06,3.53,4.59,7.05-16.42,13.87-32.81,17.38-50.4,.52-2.6-2.11-4.96-4.59-3.53-6.16,3.56-12.32,7.12-18.48,10.68-4.58,2.65-13.18,9.97-18.48,10.68-10.76,1.43-22.14-17.95-29.43-24.06-17.17-14.4-41.51-12.43-62.29-8.68-49.72,8.96-71.41,57.68-65.68,104.26,.48,3.94,6.74,3.99,6.25,0h0Z"/><path class="d" d="M356.37,111.66c8.5,42.04-4.74,86.33-23.74,123.8-9.76,19.26-25.03,30.8-42.07,43.29-15.16,11.12-30.52,22.02-46.67,31.68-16.75,10.01-34.37,18.7-53.09,24.39-21.17,6.43-43.27,8.29-65.29,8.86-43.26,1.13-80.65-11.85-118.34-32.16-.53,1.94-1.05,3.88-1.58,5.82,41.69-.63,82.09-12.65,117.31-34.98,2.72-1.73,1.47-5.58-1.58-5.82-36.54-2.92-69.06-24.82-85.88-57.32-1.18,1.53-2.35,3.06-3.53,4.59,14.12,4.2,28.17,4.81,42.63,2.05,2.74-.52,2.91-4.41,.75-5.71-29.31-17.64-63.33-39.38-65.36-77.28-1.78,.74-3.56,1.47-5.33,2.21,10.59,9.38,23.34,13.68,37.46,12.16,2.35-.25,3.9-2.46,2.7-4.7-19.65-36.67-24.98-79.1-15.04-119.49-1.9,.25-3.81,.5-5.71,.75,18.01,27.53,48.63,49.39,76.5,66.12,29.26,17.56,62.98,27.99,97.05,20.56,3.93-.86,2.27-6.88-1.66-6.03-33.65,7.35-66.83-4.12-95.31-21.81-25.89-16.07-54.28-36.16-71.18-61.99-1.41-2.16-5.04-1.98-5.71,.75-10.35,42.05-4.78,86.14,15.67,124.31,.9-1.57,1.8-3.14,2.7-4.7-12.36,1.33-23.71-2.07-33.04-10.33-1.89-1.67-5.49-.66-5.33,2.21,2.17,40.38,37.01,63.75,68.46,82.68,.25-1.9,.5-3.81,.75-5.71-13.34,2.55-26.31,1.81-39.3-2.05-2.73-.81-4.74,2.26-3.53,4.59,17.86,34.52,52.59,57.32,91.27,60.41l-1.58-5.82c-34.34,21.77-73.49,33.51-114.15,34.12-3.01,.05-4.38,4.31-1.58,5.82,28.31,15.26,58.2,28.64,90.52,32.08,34.82,3.7,73.35,.81,106.44-10.96,31.06-11.05,58.83-29.32,85.38-48.52,12.79-9.25,26.86-18.19,37.61-29.87,10.07-10.94,16.18-24.73,21.89-38.29,14.83-35.22,24.25-73.23,16.54-111.35-.8-3.94-6.82-2.27-6.03,1.66h0Z"/><path class="d" d="M367.81,149.97c2.12,38.91-2.86,79.02-25.56,111.75-45.68,65.84-131.68,81.09-206.41,81.48-44.15,.23-89.04-5.7-127.77-28.21l-1.58,5.82c41.21,.14,81.27-11.69,115.75-34.27,2.73-1.79,1.46-5.5-1.58-5.82-44.15-4.7-84.43-28.97-109.32-65.71-.9,1.57-1.8,3.13-2.7,4.7,14.04,.92,28.04,2.17,42.02,3.75,3.45,.39,3.73-4.22,1.58-5.82C24.13,196.68-1.33,165.04,8.31,127.75c-1.53,.62-3.06,1.25-4.59,1.87,13.04,6.14,26.49,10.27,40.78,12.32,2.93,.42,5.4-2.78,3.04-5.22-14.8-15.32-15.22-37.81-15.75-57.87-.58-22.23,.3-44.43,2.4-66.56-1.94,.53-3.88,1.05-5.82,1.58,39.28,52.75,92.54,105.07,163.38,101.9,4.01-.18,4.03-6.43,0-6.25C123.23,112.58,71.75,61.7,33.77,10.71c-1.88-2.53-5.52-1.63-5.82,1.58-2.47,25.99-3.35,52.17-1.97,78.25,.97,18.32,3.92,36.92,17.14,50.61,1.01-1.74,2.03-3.48,3.04-5.22-13.73-1.97-26.72-5.77-39.28-11.69-1.77-.84-4.05-.23-4.59,1.87-10.4,40.23,16.35,74.24,46.81,96.94,.53-1.94,1.05-3.88,1.58-5.82-13.98-1.58-27.98-2.82-42.02-3.75-2.3-.15-3.99,2.79-2.7,4.7,26.23,38.73,68.22,63.86,114.71,68.8l-1.58-5.82c-33.62,22.01-72.41,33.55-112.59,33.42-3.1-.01-4.26,4.27-1.58,5.82,33.26,19.33,71.19,26.94,109.3,28.66,40.53,1.83,82.51-.78,121.83-11.2,34.34-9.09,67.09-25.37,92.59-50.43,25.3-24.86,39.88-56.84,44.2-91.9,2.85-23.15,1.33-46.08-.81-69.19-1.37-14.79,8.11-22.45,17.55-32.23,9.53-9.86,19.05-19.71,28.58-29.57,1.81-1.87,.57-5.44-2.21-5.33-11.87,.47-23.49,1.98-35.08,4.56l3.84,3.84c4.4-14.71,7.16-29.66,8.38-44.96,.18-2.29-2.82-4-4.7-2.7-13.06,9.02-26.52,18.24-40.69,25.43-11.04,5.6-14.67-5.12-20.1-12.25-3.8-4.99-8.1-9.56-12.89-13.62C295.73,3.44,270.38-3.65,245.96,1.84c-52.5,11.8-66.63,69.5-55.94,115.83,.9,3.92,6.93,2.26,6.03-1.66h0c-5.54-24.01-5.21-50.67,6.26-73,13.28-25.87,41.43-40.05,70.19-36.13,13.92,1.89,27.05,8.02,37.78,17.05,5.37,4.52,10.21,9.76,14.24,15.52,2.52,3.61,4.36,8.05,7.54,11.16,6.84,6.7,14.96,2.31,22.01-1.65,12.88-7.24,25.32-15.23,37.48-23.62-1.57-.9-3.13-1.8-4.7-2.7-1.18,14.77-3.91,29.11-8.15,43.3-.71,2.38,1.6,4.34,3.84,3.84,11.04-2.46,22.12-3.89,33.42-4.33-.74-1.78-1.47-3.56-2.21-5.33"/></g></g></svg>