<?xml version="1.0" encoding="UTF-8"?><svg id="a" xmlns="http://www.w3.org/2000/svg" viewBox="0 0 493.61 373.39"><defs><style>.d{fill:#fff;}</style></defs><g id="b"><g id="c"><path class="d" d="M197.01,119.27c-.79,24.71-1.22,49.42-1.24,74.14-.01,12.14,.07,24.28,.25,36.43,.13,8.58,.05,17.04,6.04,23.8,.98,1.1,2.91,1.29,4.14,.53,19.31-11.86,39.07-23.23,57.85-35.92,14.19-9.59,30.63-21.81,38.2-37.7,3.55-7.46-1.23-11.22-7.27-14.74-9.6-5.6-19.36-10.94-29.26-16.01-20.06-10.27-40.7-19.38-61.75-27.44-4.11-1.57-5.89,5.02-1.82,6.58,18.19,6.97,36.05,14.75,53.5,23.42,8.85,4.4,17.6,9.01,26.22,13.83,3.82,2.13,8.32,4.08,11.79,6.76,3.25,2.52,3.25,3.28,1.23,6.68-1.17,1.98-2.54,3.85-3.93,5.68-10.22,13.44-24.28,23.35-38.41,32.32-16.46,10.45-33.2,20.47-49.8,30.67,1.38,.18,2.76,.36,4.14,.53-6.47-7.31-4.09-21.71-4.18-30.69-.1-10.84-.14-21.68-.09-32.52,.09-22.12,.51-44.23,1.22-66.34,.14-4.39-6.7-4.38-6.84,0h0Z"/><path class="d" d="M192.12,117.95c-6.17,31.98-7.6,64.72-3.71,97.08,.83,6.87,1.86,13.72,3.13,20.53,1.17,6.26,1.54,15.53,6.09,20.47,7.73,8.4,21.36,.47,29.27-3.4,25.11-12.3,47.84-29.64,66.35-50.55,7-7.91,19.18-19.47,19.21-30.8,.03-11.84-12.09-18.11-21.29-22.56-16.78-8.11-33.56-16.24-50.39-24.26-15.05-7.17-30.55-13.78-47.56-13.19-4.39,.15-4.41,6.97,0,6.82,14.03-.49,26.94,4.27,39.5,10.08,12,5.55,23.85,11.44,35.76,17.17,10.43,5.02,24.04,9.19,32.59,17.23,10.98,10.32-3.28,23.78-10.41,32.11-15.12,17.64-33.12,32.73-53.17,44.51-4.58,2.69-9.26,5.21-14.03,7.55-4.64,2.27-11.56,6.89-16.99,6.11-7.1-1.02-7.6-15.15-8.56-20.4-1.29-7.08-2.33-14.21-3.1-21.36-3.26-30.46-1.89-61.25,3.91-91.32,.83-4.29-5.76-6.12-6.59-1.81h0Z"/><path class="d" d="M18.21,92.45c3.49-20.43,10.51-41.61,28.07-54.28,16.35-11.8,37.46-14.1,57.04-14.83,46.34-1.75,92.93-1.06,139.31-1.29,46.6-.23,93.24,.09,139.76,2.93,20.76,1.27,43.92,1.43,62.48,12.02,19.86,11.33,25.33,33.22,26.77,54.45,3.17,46.97-.24,95.18-6.7,141.73-2.91,20.97-6.56,41.99-13.39,62.08-3.43,10.11-7.69,20.07-13.17,29.27-7.39,12.4-17.03,15.46-30.43,17.77-93.28,16.13-189.45,17.01-283.05,2.95-23.06-3.46-52.81-4.94-72.9-17.81-22.92-14.67-27.8-46.45-30.12-71.26-5-53.25-4.62-107.52-4.14-160.96,.04-4.39-6.8-4.39-6.84,0-.49,54.09-1.04,109.15,4.34,163.03,2.06,20.62,5.71,42.85,17.91,60.18,12.71,18.04,32.71,23.12,53.35,27.12,100.68,19.51,204.64,21.49,306.02,6.11,20.95-3.18,40.11-4.14,51.76-23.7,11.5-19.31,17.97-41.41,22.35-63.29,10.08-50.36,13.37-102.64,12.51-153.91-.33-19.37-.54-40.39-9.79-57.98-8.72-16.57-24.86-25.67-42.68-29.77-22.24-5.11-45.98-5.16-68.66-6.14-26.61-1.15-53.24-1.6-79.87-1.7-59.25-.23-119.14-1.4-178.33,1.48-20.81,1.01-42.9,4.36-59.68,17.65-17.38,13.77-24.91,35.19-28.52,56.32-.73,4.29,5.86,6.14,6.59,1.81h0Z"/><path class="d" d="M19.33,91.51C25.79,41.88,75.69,16.76,120.44,10.25c52.09-7.58,107.04-3.15,159.41-.75,51.5,2.36,105.79,1.55,156.04,14.14,10.96,2.75,23.53,5.75,32.96,12.21,12.08,8.27,15.15,22.68,16.38,36.32,2.19,24.2,2.01,48.81,.76,73.05-2.69,52.11-12.26,103.84-28.4,153.48-4.05,12.47-7.5,27.8-16.93,37.48-8.98,9.22-22.88,12.05-34.93,15.03-26.42,6.54-53.44,10.32-80.55,12.49-51.95,4.15-104.39,3.27-156.45,2.12-47.68-1.05-105.46-2.78-136.84-44.77-17.63-23.6-16.27-53.12-17.21-81.08-.94-28.29-6.47-56.16-7.7-84.43-1.27-29.07,1.63-58.26,8.65-86.5,1.86-7.5,3.56-15.71,8.34-21.95,5.29-6.91,12.39-9.43,20.6-11.63,14.02-3.76,28.38-6.32,42.75-8.32,4.34-.6,2.49-7.17-1.82-6.58-13.8,1.92-27.56,4.36-41.05,7.88-9.96,2.6-20.08,6.01-26.33,14.72-6.96,9.7-9.03,22.89-11.46,34.29-2.97,13.98-4.97,28.18-6.01,42.43-2.12,29.12,1.22,57.59,4.51,86.47,3.05,26.72,1.06,54.08,5.5,80.58,8.58,51.22,55.63,76.13,103.35,82.48,27.66,3.68,55.92,3.37,83.78,3.71,30.85,.38,61.74,.5,92.57-.64,29.27-1.08,58.56-3.46,87.44-8.49,21.77-3.79,53.21-6.78,68.91-24.41,6.78-7.61,10.08-17.54,13.38-26.98,5.16-14.73,9.7-29.67,13.67-44.76,7.3-27.73,12.57-55.99,15.86-84.48,3.34-28.89,4.59-58.01,3.7-87.07-.61-20.04,.46-46.22-15.05-61.55-17.09-16.9-49.19-20.46-71.72-23.57-28.73-3.97-57.85-4.92-86.78-6.48-34.01-1.83-68.04-3.47-102.1-4.15-31.54-.62-63.63-1.53-94.97,2.57C73.05,9.62,19.59,36.94,12.49,91.51c-.56,4.34,6.28,4.3,6.84,0h0Z"/></g></g></svg>